<svg width="83" height="73" viewBox="0 0 83 73" fill="none" xmlns="http://www.w3.org/2000/svg">
<path d="M1.8474 70.1291C5.86862 68.5889 34.6799 56.6401 36.3553 55.7583C38.4001 54.7411 37.7863 54.4702 59.8832 66.7575C66.1541 70.3163 71.4946 72.9964 71.7213 72.8061C71.9481 72.6158 69.4835 64.7278 66.1707 55.3683C62.9575 46.0124 60.3913 37.773 60.4304 37.1288C60.5947 35.943 80.5675 4.24982 81.8147 3.20324C84.1392 1.25281 79.5061 2.86976 63.2257 9.71863C53.0113 14.0101 44.2162 17.4601 43.6747 17.3904C43.1333 17.3208 38.4633 14.864 33.2929 12.0412C13.7529 1.18906 10.9967 -0.253522 10.6565 0.0319078C10.3163 0.317338 11.4753 3.88617 18.9141 25.4164C20.6223 30.4457 21.9865 35.065 21.9044 35.6579C21.7812 36.5473 10.1799 55.19 1.2708 68.8663L2.4494e-05 70.8059L1.8474 70.1291Z" fill="white"/>
</svg>
